<?xml version="1.0" encoding="UTF-8" standalone="no"?>
<!-- Created with Inkscape (http://www.inkscape.org/) -->

<svg
   width="48"
   height="48"
   viewBox="0 0 12.7 12.7"
   version="1.1"
   id="svg1"
   xml:space="preserve"
   inkscape:version="1.4 (86a8ad7, 2024-10-11)"
   sodipodi:docname="blox.svg"
   xmlns:inkscape="http://www.inkscape.org/namespaces/inkscape"
   xmlns:sodipodi="http://sodipodi.sourceforge.net/DTD/sodipodi-0.dtd"
   xmlns="http://www.w3.org/2000/svg"
   xmlns:svg="http://www.w3.org/2000/svg"><sodipodi:namedview
     id="namedview1"
     pagecolor="#ffffff"
     bordercolor="#000000"
     borderopacity="0.25"
     inkscape:showpageshadow="2"
     inkscape:pageopacity="0.0"
     inkscape:pagecheckerboard="0"
     inkscape:deskcolor="#d1d1d1"
     inkscape:document-units="mm"
     inkscape:zoom="11.616723"
     inkscape:cx="16.355732"
     inkscape:cy="19.497754"
     inkscape:window-width="1920"
     inkscape:window-height="1017"
     inkscape:window-x="1912"
     inkscape:window-y="-8"
     inkscape:window-maximized="1"
     inkscape:current-layer="layer1" /><defs
     id="defs1"><marker
       id="DistanceX"
       orient="auto"
       refX="0.0"
       refY="0.0"
       style="overflow:visible"><path
         d="M 3,-3 L -3,3 M 0,-5 L  0,5"
         style="stroke:#000000; stroke-width:0.5"
         id="path1" /></marker><pattern
       id="Hatch"
       patternUnits="userSpaceOnUse"
       width="8"
       height="8"
       x="0"
       y="0"><path
         d="M8 4 l-4,4"
         stroke="#000000"
         stroke-width="0.25"
         linecap="square"
         id="path2" /><path
         d="M6 2 l-4,4"
         stroke="#000000"
         stroke-width="0.25"
         linecap="square"
         id="path3" /><path
         d="M4 0 l-4,4"
         stroke="#000000"
         stroke-width="0.25"
         linecap="square"
         id="path4" /></pattern><symbol
       id="*Model_Space" /><symbol
       id="*Paper_Space" /><symbol
       id="*Paper_Space0" /><marker
       id="DistanceX-0"
       orient="auto"
       refX="0.0"
       refY="0.0"
       style="overflow:visible"><path
         d="M 3,-3 L -3,3 M 0,-5 L  0,5"
         style="stroke:#000000; stroke-width:0.5"
         id="path1-9" /></marker><pattern
       id="Hatch-4"
       patternUnits="userSpaceOnUse"
       width="8"
       height="8"
       x="0"
       y="0"><path
         d="M8 4 l-4,4"
         stroke="#000000"
         stroke-width="0.25"
         linecap="square"
         id="path2-8" /><path
         d="M6 2 l-4,4"
         stroke="#000000"
         stroke-width="0.25"
         linecap="square"
         id="path3-8" /><path
         d="M4 0 l-4,4"
         stroke="#000000"
         stroke-width="0.25"
         linecap="square"
         id="path4-2" /></pattern><symbol
       id="*Model_Space-4" /><symbol
       id="*Paper_Space-5" /><symbol
       id="*Paper_Space0-5" /></defs><g
     inkscape:label="Layer 1"
     inkscape:groupmode="layer"
     id="layer1"><path
       style="fill:#e893ff;stroke:#000000;stroke-width:0.0230059;stroke-linecap:round;stroke-linejoin:round;stroke-dasharray:none;stroke-opacity:0;paint-order:fill markers stroke;fill-opacity:1"
       d="m 6.748218,34.433959 c -0.2334122,0.409925 -0.05151,0.931397 -0.1090186,1.387877 0.013805,1.762818 -0.027544,3.535243 0.020581,5.292082 0.1531571,0.425339 0.7263243,0.175751 1.0706752,0.242665 1.8845549,-0.01382 3.7787194,0.02753 5.6572994,-0.02058 0.42534,-0.153157 0.175751,-0.726324 0.242666,-1.070675 -0.01382,-1.884555 0.02753,-3.778719 -0.02058,-5.6573 -0.153158,-0.42534 -0.726325,-0.175751 -1.070676,-0.242665 -1.884554,0.01382 -3.7787186,-0.02753 -5.6572996,0.02058 -0.044549,0.016 -0.089098,0.03201 -0.1336465,0.04802 z"
       id="path71"
       transform="scale(0.26458333)" /><path
       style="fill:#efff90;stroke:#000000;stroke-width:0.0230059;stroke-linecap:round;stroke-linejoin:round;stroke-dasharray:none;stroke-opacity:0;paint-order:fill markers stroke;fill-opacity:1"
       d="m 37.729722,5.2704627 c -2.371263,-0.013523 -4.547537,2.0018419 -4.744629,4.3575356 -0.107765,1.1385957 0.132955,2.3164577 0.7963,3.2600967 1.090805,1.644488 3.225003,2.528631 5.152765,2.03878 1.985986,-0.43798 3.619176,-2.212556 3.764562,-4.261358 C 43.000861,8.5586529 41.657313,6.4206496 39.707275,5.6363944 39.084028,5.3678304 38.40718,5.2487818 37.729722,5.2704627 Z"
       id="path72"
       transform="scale(0.26458333)" /><path
       style="fill:#a49bff;stroke:#000000;stroke-width:0.0230059;stroke-linecap:round;stroke-linejoin:round;stroke-dasharray:none;stroke-opacity:0;paint-order:fill markers stroke;fill-opacity:1"
       d="m 19.298677,23.829311 c -1.308324,0.83557 -2.54424,1.789587 -3.794253,2.712031 -0.278213,0.256118 -0.854755,0.510245 -0.646133,0.979599 0.524779,1.638439 1.030611,3.293024 1.602377,4.910012 0.255287,0.310443 0.74559,0.09505 1.100249,0.159276 1.519323,-0.01379 3.048293,0.02792 4.561656,-0.02015 0.374149,-0.146904 0.32037,-0.679989 0.490844,-0.997545 0.453788,-1.418267 0.931718,-2.829394 1.3582,-4.256054 -0.0018,-0.426158 -0.519944,-0.556571 -0.768718,-0.824713 -1.213782,-0.894785 -2.411249,-1.81744 -3.672038,-2.644742 -0.07058,-0.0423 -0.15551,-0.0093 -0.232184,-0.01771 z"
       id="path73"
       transform="scale(0.26458333)" /><path
       style="fill:#a1ffc7;fill-opacity:1;stroke:#000000;stroke-width:0.0230059;stroke-linecap:round;stroke-linejoin:round;stroke-dasharray:none;stroke-opacity:0;paint-order:fill markers stroke"
       d="m 28.509503,14.539187 c -1.218108,0.563538 -2.42767,1.148285 -3.62698,1.750837 -0.297015,0.382554 -0.25322,0.928829 -0.412654,1.376464 -0.194915,0.911665 -0.443763,1.820767 -0.60293,2.734417 0.104948,0.431958 0.538201,0.721761 0.770917,1.097866 0.607936,0.741308 1.178684,1.524495 1.809755,2.239721 0.403029,0.187492 0.899833,0.03007 1.338944,0.08301 0.955176,-0.01213 1.919857,0.03074 2.869102,-0.01588 0.3983,-0.198101 0.583211,-0.686709 0.897823,-0.997877 0.590451,-0.777927 1.259214,-1.508578 1.770082,-2.341016 -0.01159,-0.647951 -0.249724,-1.282888 -0.358848,-1.922619 -0.176685,-0.716362 -0.297493,-1.451885 -0.529113,-2.152086 -0.464676,-0.375498 -1.071484,-0.551285 -1.593154,-0.844131 -0.712368,-0.338515 -1.416773,-0.695908 -2.139516,-1.011445 -0.06448,9.12e-4 -0.128952,0.0018 -0.193428,0.0027 z"
       id="path74"
       transform="scale(0.26458333)" /><g
       inkscape:label="0"
       id="g54"
       transform="matrix(0.38765653,0,0,0.38765653,6.3504959,-428.80209)"
       style="stroke-width:0.284692;stroke-dasharray:none"><path
         d="m 13.228346,1113.0709 a 3.779528,3.779528 0 0 0 -7.559055,0 3.779528,3.779528 0 0 0 7.559055,0 z"
         style="fill:none;stroke:#000000;stroke-width:0.284692;stroke-linecap:round;stroke-dasharray:none"
         id="path5" /><path
         d="m 12.755906,1113.0709 a 3.307087,3.307087 0 0 0 -6.614174,0 3.307087,3.307087 0 0 0 6.614174,0 z"
         style="fill:none;stroke:#000000;stroke-width:0.284692;stroke-linecap:round;stroke-dasharray:none"
         id="path6" /><path
         style="fill:none;stroke:#000000;stroke-width:0.284692;stroke-linecap:round;stroke-dasharray:none"
         d="M 4.5845,1122.35 H 1.71471"
         id="path7" /><path
         style="fill:none;stroke:#000000;stroke-width:0.284692;stroke-linecap:round;stroke-dasharray:none"
         d="m 1.71471,1122.35 -1.789275,-2.24"
         id="path8" /><path
         style="fill:none;stroke:#000000;stroke-width:0.284692;stroke-linecap:round;stroke-dasharray:none"
         d="m -0.074565,1120.11 0.638587,-2.8"
         id="path9" /><path
         style="fill:none;stroke:#000000;stroke-width:0.284692;stroke-linecap:round;stroke-dasharray:none"
         d="m 0.564022,1117.31 2.585588,-1.25"
         id="path10" /><path
         style="fill:none;stroke:#000000;stroke-width:0.284692;stroke-linecap:round;stroke-dasharray:none"
         d="m 3.14961,1116.06 2.58558,1.25"
         id="path11" /><path
         style="fill:none;stroke:#000000;stroke-width:0.284692;stroke-linecap:round;stroke-dasharray:none"
         d="m 5.73519,1117.31 0.63859,2.8"
         id="path12" /><path
         style="fill:none;stroke:#000000;stroke-width:0.284692;stroke-linecap:round;stroke-dasharray:none"
         d="m 6.37378,1120.11 -1.78928,2.24"
         id="path13" /><path
         style="fill:none;stroke:#000000;stroke-width:0.284692;stroke-linecap:round;stroke-dasharray:none"
         d="m 1.4872,1122.82 -2.072988,-2.6"
         id="path14" /><path
         style="fill:none;stroke:#000000;stroke-width:0.284692;stroke-linecap:round;stroke-dasharray:none"
         d="M 4.81201,1122.82 H 1.4872"
         id="path15" /><path
         style="fill:none;stroke:#000000;stroke-width:0.284692;stroke-linecap:round;stroke-dasharray:none"
         d="m 6.885,1120.22 -2.07299,2.6"
         id="path16" /><path
         style="fill:none;stroke:#000000;stroke-width:0.284692;stroke-linecap:round;stroke-dasharray:none"
         d="m 6.14516,1116.98 0.73984,3.24"
         id="path17" /><path
         style="fill:none;stroke:#000000;stroke-width:0.284692;stroke-linecap:round;stroke-dasharray:none"
         d="m 3.14961,1115.54 2.99555,1.44"
         id="path18" /><path
         style="fill:none;stroke:#000000;stroke-width:0.284692;stroke-linecap:round;stroke-dasharray:none"
         d="m 0.154053,1116.98 2.995557,-1.44"
         id="path19" /><path
         style="fill:none;stroke:#000000;stroke-width:0.284692;stroke-linecap:round;stroke-dasharray:none"
         d="m -0.585788,1120.22 0.739841,-3.24"
         id="path20" /><path
         style="fill:none;stroke:#000000;stroke-width:0.284692;stroke-linecap:round;stroke-dasharray:none"
         d="m 0.551008,1124.47 -3.700618,-2.69"
         id="path21" /><path
         style="fill:none;stroke:#000000;stroke-width:0.284692;stroke-linecap:round;stroke-dasharray:none"
         d="m -3.14961,1121.78 -3.70061,2.69"
         id="path22" /><path
         style="fill:none;stroke:#000000;stroke-width:0.284692;stroke-linecap:round;stroke-dasharray:none"
         d="m -6.85022,1124.47 1.41351,4.35"
         id="path23" /><path
         style="fill:none;stroke:#000000;stroke-width:0.284692;stroke-linecap:round;stroke-dasharray:none"
         d="m -5.43671,1128.82 h 4.574209"
         id="path24" /><path
         style="fill:none;stroke:#000000;stroke-width:0.284692;stroke-linecap:round;stroke-dasharray:none"
         d="m -0.862501,1128.82 1.413509,-4.35"
         id="path25" /><path
         style="fill:none;stroke:#000000;stroke-width:0.284692;stroke-linecap:round;stroke-dasharray:none"
         d="m -3.14961,1122.36 -3.14522,2.29"
         id="path26" /><path
         style="fill:none;stroke:#000000;stroke-width:0.284692;stroke-linecap:round;stroke-dasharray:none"
         d="m -0.00438,1124.65 -3.14523,-2.29"
         id="path27" /><path
         style="fill:none;stroke:#000000;stroke-width:0.284692;stroke-linecap:round;stroke-dasharray:none"
         d="m -1.20575,1128.34 1.20137,-3.69"
         id="path28" /><path
         style="fill:none;stroke:#000000;stroke-width:0.284692;stroke-linecap:round;stroke-dasharray:none"
         d="m -5.09346,1128.34 h 3.88771"
         id="path29" /><path
         style="fill:none;stroke:#000000;stroke-width:0.284692;stroke-linecap:round;stroke-dasharray:none"
         d="m -6.29483,1124.65 1.20137,3.69"
         id="path30" /><path
         style="fill:none;stroke:#000000;stroke-width:0.284692;stroke-linecap:round;stroke-dasharray:none"
         d="m -11.7873,1134.31 h 4.67694"
         id="path31" /><path
         style="fill:none;stroke:#000000;stroke-width:0.284692;stroke-linecap:round;stroke-dasharray:none"
         d="m -11.7873,1134.31 v -4.68"
         id="path32" /><path
         style="fill:none;stroke:#000000;stroke-width:0.284692;stroke-linecap:round;stroke-dasharray:none"
         d="m -11.7873,1129.63 h 4.67694"
         id="path33" /><path
         style="fill:none;stroke:#000000;stroke-width:0.284692;stroke-linecap:round;stroke-dasharray:none"
         d="m -7.11036,1134.31 v -4.68"
         id="path34" /><path
         style="fill:none;stroke:#000000;stroke-width:0.284692;stroke-linecap:round;stroke-dasharray:none"
         d="m -12.2597,1134.78 v -5.62"
         id="path35" /><path
         style="fill:none;stroke:#000000;stroke-width:0.284692;stroke-linecap:round;stroke-dasharray:none"
         d="m -12.2597,1134.78 h 5.62179"
         id="path36" /><path
         style="fill:none;stroke:#000000;stroke-width:0.284692;stroke-linecap:round;stroke-dasharray:none"
         d="m -6.63791,1134.78 v -5.62"
         id="path37" /><path
         style="fill:none;stroke:#000000;stroke-width:0.284692;stroke-linecap:round;stroke-dasharray:none"
         d="m -12.2597,1129.16 h 5.62179"
         id="path38" /><path
         d="m 14.960911,1118.917 a 0.23622069,0.23622069 0 0 0 -0.334066,-0.334"
         style="fill:none;stroke:#000000;stroke-width:0.284692;stroke-linecap:round;stroke-dasharray:none"
         id="path39" /><path
         style="fill:none;stroke:#000000;stroke-width:0.284692;stroke-linecap:round;stroke-dasharray:none"
         d="m 14.6268,1118.58 -17.78327,17.79"
         id="path40" /><path
         d="m -3.156468,1136.3663 a 0.23622,0.23622 0 0 0 0.266864,0.3811"
         style="fill:none;stroke:#000000;stroke-width:0.284692;stroke-linecap:round;stroke-dasharray:none"
         id="path41" /><path
         style="fill:none;stroke:#000000;stroke-width:0.284692;stroke-linecap:round;stroke-dasharray:none"
         d="m -2.8896,1136.75 5.63667,-2.63"
         id="path42" /><path
         style="fill:none;stroke:#000000;stroke-width:0.284692;stroke-linecap:round;stroke-dasharray:none"
         d="m 2.54741,1133.69 0.19966,0.43"
         id="path43" /><path
         style="fill:none;stroke:#000000;stroke-width:0.284692;stroke-linecap:round;stroke-dasharray:none"
         d="m -0.660954,1135.19 3.208364,-1.5"
         id="path44" /><path
         d="m -0.927818,1134.8058 a 0.23622,0.23622 0 0 0 0.266864,0.3811"
         style="fill:none;stroke:#000000;stroke-width:0.284692;stroke-linecap:round;stroke-dasharray:none"
         id="path45" /><path
         style="fill:none;stroke:#000000;stroke-width:0.284692;stroke-linecap:round;stroke-dasharray:none"
         d="m 14.9609,1118.92 -15.888718,15.89"
         id="path46" /><path
         style="fill:none;stroke:#000000;stroke-width:0.284692;stroke-linecap:round;stroke-dasharray:none"
         d="M -14.9609,1126.12 0.927818,1110.23"
         id="path47" /><path
         d="m -14.960911,1126.1223 a 0.23623236,0.23623236 0 0 0 0.334066,0.3341"
         style="fill:none;stroke:#000000;stroke-width:0.284692;stroke-linecap:round;stroke-dasharray:none"
         id="path48" /><path
         style="fill:none;stroke:#000000;stroke-width:0.284692;stroke-linecap:round;stroke-dasharray:none"
         d="M -14.6268,1126.46 3.15647,1108.67"
         id="path49" /><path
         d="M 3.156468,1108.6731 A 0.23622,0.23622 0 0 0 2.889604,1108.292"
         style="fill:none;stroke:#000000;stroke-width:0.284692;stroke-linecap:round;stroke-dasharray:none"
         id="path50" /><path
         style="fill:none;stroke:#000000;stroke-width:0.284692;stroke-linecap:round;stroke-dasharray:none"
         d="m 2.8896,1108.29 -5.42258,2.53"
         id="path51" /><path
         d="m -2.532982,1110.8206 a 0.23622048,0.23622048 0 0 0 0.199662,0.4281"
         style="fill:none;stroke:#000000;stroke-width:0.284692;stroke-linecap:round;stroke-dasharray:none"
         id="path52" /><path
         style="fill:none;stroke:#000000;stroke-width:0.284692;stroke-linecap:round;stroke-dasharray:none"
         d="m 0.660954,1109.85 -2.994274,1.4"
         id="path53" /><path
         d="m 0.927818,1110.2336 a 0.23622,0.23622 0 0 0 -0.266864,-0.3811"
         style="fill:none;stroke:#000000;stroke-width:0.284692;stroke-linecap:round;stroke-dasharray:none"
         id="path54" /></g><path
       style="fill:#000000;stroke:#000000;stroke-width:0.0230059;stroke-linecap:round;stroke-linejoin:round;stroke-dasharray:none;stroke-opacity:0;paint-order:fill markers stroke"
       d="m 28.322139,3.0890199 c -2.723581,1.2109531 -5.425404,2.4757524 -8.114815,3.761678 -0.387836,0.2054807 -0.04519,0.8345105 0.343343,0.6523286 1.55539,-0.5831608 3.013418,-1.4077378 4.55132,-2.0208275 0.294644,-0.042421 0.380767,0.3306429 0.138741,0.466866 -2.392567,2.545873 -4.905113,4.973256 -7.361054,7.458724 C 12.587958,18.716547 7.2612417,23.991141 2.0208275,29.350504 1.6948217,29.735323 2.3759805,30.139013 2.629287,29.754836 9.9600385,22.517128 17.224249,15.212241 24.500408,7.9196769 25.911289,6.4868872 27.35131,5.0807354 28.735387,3.6227 28.895794,3.3414368 28.628655,3.0167577 28.322139,3.0890199 Z"
       id="path65"
       transform="scale(0.26458333)" /><path
       style="fill:#000000;stroke:#000000;stroke-width:0.0230059;stroke-linecap:round;stroke-linejoin:round;stroke-dasharray:none;stroke-opacity:0;paint-order:fill markers stroke"
       d="m 45.654795,18.11992 c -0.567667,0.364818 -0.996894,0.924053 -1.502408,1.371215 -7.722015,7.641366 -15.384002,15.343432 -23.04001,23.050923 -0.601822,0.641493 -1.278692,1.230003 -1.830893,1.908725 -0.188944,0.361237 0.31581,0.647403 0.596882,0.405928 2.650361,-1.222121 5.299645,-2.448595 7.927926,-3.717095 0.358764,-0.221666 0.05239,-0.836369 -0.339302,-0.648525 -1.570896,0.591205 -3.063704,1.446263 -4.619085,2.025346 -0.258349,-0.0381 -0.328019,-0.38637 -0.06981,-0.498701 7.451636,-7.62973 15.082293,-15.088598 22.54558,-22.709782 0.221444,-0.299366 0.634257,-0.51707 0.703031,-0.89814 0.0085,-0.183497 -0.19211,-0.340991 -0.371915,-0.289894 z"
       id="path66"
       transform="scale(0.26458333)" /><path
       style="fill:#000000;stroke:#000000;stroke-width:0.0230059;stroke-linecap:round;stroke-linejoin:round;stroke-dasharray:none;stroke-opacity:0;paint-order:fill markers stroke"
       d="m 6.078651,33.764392 c -0.2334122,0.409925 -0.05151,0.931397 -0.1090186,1.387877 0.01379,2.209198 -0.02751,4.427993 0.020581,6.631216 0.1531571,0.425339 0.7263242,0.175751 1.0706752,0.242665 2.3512409,-0.01371 4.7120374,0.02743 7.0573034,-0.02058 0.42534,-0.153157 0.175751,-0.726324 0.242665,-1.070675 -0.01379,-2.330937 0.0275,-4.67147 -0.02058,-6.996434 -0.153158,-0.42534 -0.726325,-0.175751 -1.070676,-0.242665 -2.351241,0.01371 -4.7120372,-0.02743 -7.0573036,0.02058 -0.044549,0.016 -0.089098,0.03201 -0.1336465,0.04802 z m 4.114651,0.713911 c 1.094837,0.0073 2.204326,-0.01419 3.287798,0.03472 0.05725,2.212916 0.0042,4.427204 0.0073,6.640626 -2.21656,0.0042 -4.4333203,0.03507 -6.6497805,0.0031 -0.027371,-2.217459 -0.050843,-4.436646 0.00511,-6.653584 1.1163213,-0.02368 2.2330945,-0.02277 3.3496185,-0.02485 z"
       id="path67"
       transform="scale(0.26458333)" /><path
       style="fill:#000000;stroke:#000000;stroke-width:0.0230059;stroke-linecap:round;stroke-linejoin:round;stroke-dasharray:none;stroke-opacity:0;paint-order:fill markers stroke"
       d="m 19.366323,22.974757 c -1.000037,0.573839 -1.906316,1.310298 -2.857272,1.964434 -0.826517,0.623064 -1.710013,1.184086 -2.48262,1.871785 -0.125112,0.414012 0.196098,0.825677 0.266384,1.233735 0.560779,1.704396 1.08223,3.431504 1.679236,5.117864 0.255253,0.310492 0.745583,0.09499 1.100244,0.159203 1.845705,-0.01389 3.701059,0.0276 5.540792,-0.02058 0.374126,-0.146884 0.320871,-0.67961 0.491584,-0.997039 0.554861,-1.751634 1.165071,-3.494898 1.688592,-5.250633 -0.001,-0.38675 -0.490139,-0.51166 -0.717886,-0.760683 -1.47884,-1.109294 -2.953491,-2.226364 -4.472708,-3.279924 -0.07884,-0.03125 -0.150529,-0.06211 -0.236346,-0.03816 z m 0.124711,0.955963 c 1.491916,1.039984 2.961227,2.114535 4.391538,3.237866 -0.530919,1.769508 -1.098804,3.528652 -1.7078,5.27284 -1.853644,0.07208 -3.710354,0.02118 -5.565182,0.03697 -0.620489,-1.74527 -1.187135,-3.544985 -1.716122,-5.328836 1.474577,-1.1317 2.980457,-2.224178 4.514822,-3.273412 l 0.05081,0.03351 z"
       id="path68"
       transform="scale(0.26458333)" /><path
       style="fill:#000000;stroke:#000000;stroke-width:0.0230059;stroke-linecap:round;stroke-linejoin:round;stroke-dasharray:none;stroke-opacity:0;paint-order:fill markers stroke"
       d="m 28.485964,13.769042 c -1.40455,0.691521 -2.841866,1.337264 -4.22617,2.057091 -0.272504,0.351541 -0.227607,0.871484 -0.376041,1.288282 -0.241751,1.144836 -0.555606,2.282702 -0.74209,3.43473 0.167472,0.478163 0.597197,0.836407 0.875346,1.258966 0.69674,0.868891 1.369836,1.768391 2.09558,2.606487 0.403336,0.187377 0.900374,0.02767 1.339777,0.07953 1.184611,-0.01542 2.378934,0.02453 3.557511,-0.02529 0.397616,-0.19885 0.582935,-0.686192 0.897395,-0.99722 0.720019,-0.926463 1.489,-1.826146 2.178552,-2.76923 0.09257,-0.434839 -0.172416,-0.88374 -0.219253,-1.323574 -0.264581,-1.13919 -0.511245,-2.282982 -0.796356,-3.417157 -0.312584,-0.37908 -0.860697,-0.46419 -1.269894,-0.721023 -1.039316,-0.487719 -2.065042,-1.025406 -3.114661,-1.477871 -0.0664,0.0016 -0.138289,-0.03626 -0.199696,0.0063 z m 1.979693,1.725277 c 0.627408,0.306401 1.256442,0.609886 1.876262,0.931473 0.318127,1.320631 0.61857,2.649267 0.91471,3.972582 -0.78942,1.142948 -1.697171,2.200773 -2.567347,3.282685 -1.377128,0.02863 -2.760268,0.07116 -4.1351,-0.01094 -0.879308,-1.068193 -1.792462,-2.128878 -2.566158,-3.265566 0.263767,-1.327731 0.593631,-2.666832 0.894737,-3.998975 1.246475,-0.601853 2.492918,-1.203773 3.739327,-1.805762 0.614523,0.298166 1.229046,0.596333 1.843569,0.8945 z"
       id="path69"
       transform="scale(0.26458333)" /><path
       style="fill:#000000;stroke:#000000;stroke-width:0.0230059;stroke-linecap:round;stroke-linejoin:round;stroke-dasharray:none;stroke-opacity:0;paint-order:fill markers stroke"
       d="m 37.817817,4.5789017 c -2.482594,-0.043425 -4.820064,1.8073 -5.393716,4.2154442 -0.221842,0.9517877 -0.199323,1.9696531 0.04063,2.9153501 0.446928,1.346642 1.322258,2.576352 2.581851,3.269726 0.863639,0.493476 1.853252,0.819402 2.858016,0.726231 1.92264,0.08011 3.773004,-1.074456 4.742141,-2.703308 C 43.464035,11.675659 43.633955,9.9952312 43.191,8.5120136 42.501086,6.224717 40.223922,4.5020346 37.81782,4.5789017 Z m 0.168224,0.8128249 c 2.147763,0.011894 4.142093,1.6788099 4.53769,3.7916174 0.403495,1.906501 -0.477917,4.037042 -2.152833,5.028311 -1.458798,0.904963 -3.438285,0.968562 -4.903635,0.08475 -1.538186,-0.872703 -2.544685,-2.649932 -2.373152,-4.4282536 0.05571,-2.3585206 2.167072,-4.4514551 4.531516,-4.4676827 0.120025,-0.00657 0.24022,-0.00895 0.360414,-0.00874 z"
       id="path70"
       transform="scale(0.26458333)" /></g></svg>
