<?xml version="1.0" encoding="UTF-8" standalone="no"?>
<!-- Created with Inkscape (http://www.inkscape.org/) -->

<svg
   width="48"
   height="48"
   viewBox="0 0 12.7 12.7"
   version="1.1"
   id="svg1"
   xml:space="preserve"
   inkscape:version="1.4 (86a8ad7, 2024-10-11)"
   sodipodi:docname="hammer.svg"
   xmlns:inkscape="http://www.inkscape.org/namespaces/inkscape"
   xmlns:sodipodi="http://sodipodi.sourceforge.net/DTD/sodipodi-0.dtd"
   xmlns="http://www.w3.org/2000/svg"
   xmlns:svg="http://www.w3.org/2000/svg"><sodipodi:namedview
     id="namedview1"
     pagecolor="#ffffff"
     bordercolor="#000000"
     borderopacity="0.25"
     inkscape:showpageshadow="2"
     inkscape:pageopacity="0.0"
     inkscape:pagecheckerboard="0"
     inkscape:deskcolor="#d1d1d1"
     inkscape:document-units="mm"
     inkscape:zoom="16.428527"
     inkscape:cx="21.304406"
     inkscape:cy="25.717461"
     inkscape:window-width="1920"
     inkscape:window-height="1017"
     inkscape:window-x="1912"
     inkscape:window-y="-8"
     inkscape:window-maximized="1"
     inkscape:current-layer="layer1" /><defs
     id="defs1"><marker
       id="DistanceX"
       orient="auto"
       refX="0.0"
       refY="0.0"
       style="overflow:visible"><path
         d="M 3,-3 L -3,3 M 0,-5 L  0,5"
         style="stroke:#000000; stroke-width:0.5"
         id="path1" /></marker><pattern
       id="Hatch"
       patternUnits="userSpaceOnUse"
       width="8"
       height="8"
       x="0"
       y="0"><path
         d="M8 4 l-4,4"
         stroke="#000000"
         stroke-width="0.25"
         linecap="square"
         id="path2" /><path
         d="M6 2 l-4,4"
         stroke="#000000"
         stroke-width="0.25"
         linecap="square"
         id="path3" /><path
         d="M4 0 l-4,4"
         stroke="#000000"
         stroke-width="0.25"
         linecap="square"
         id="path4" /></pattern><symbol
       id="*Model_Space" /><symbol
       id="*Paper_Space" /><symbol
       id="*Paper_Space0" /></defs><g
     inkscape:label="Layer 1"
     inkscape:groupmode="layer"
     id="layer1"><path
       style="fill:#999999;stroke:#000000;stroke-width:0.0325352;stroke-linecap:round;stroke-linejoin:round;stroke-dasharray:none;stroke-opacity:0;paint-order:fill markers stroke"
       d="m 30.106786,4.4082127 c -4.371239,2.3898456 -8.680825,4.8969409 -12.988751,7.4005983 -0.732994,0.25779 -0.717922,1.134982 -0.94587,1.750576 -0.111794,0.594955 -0.492658,1.285208 -0.01904,1.822431 1.162284,2.060785 2.321882,4.123951 3.527888,6.159393 0.554019,0.353548 1.273413,0.398731 1.898193,0.603589 0.446764,0.1527 0.93371,0.21449 1.32885,-0.103278 4.383003,-2.379447 8.66705,-4.936305 12.999565,-7.405765 0.394542,-0.673082 0.437049,-1.522571 0.696872,-2.263186 C 36.965747,11.651033 36.202445,11.081603 35.95414,10.459978 34.894905,8.6817802 33.925517,6.8375148 32.799732,5.105786 31.973613,4.7801289 31.095187,4.5658922 30.224141,4.3925765 l -0.08533,0.011369 z"
       id="path61"
       transform="scale(0.26458333)" /><path
       style="fill:#aa8367;stroke:#000000;stroke-width:0.0325352;stroke-linecap:round;stroke-linejoin:round;stroke-dasharray:none;stroke-opacity:0;paint-order:fill markers stroke;fill-opacity:1"
       d="m 32.053401,17.863694 c -1.606675,0.882989 -3.228695,1.77656 -4.781054,2.735957 -0.247982,0.451775 0.363503,0.883729 0.501934,1.31228 2.658646,4.607799 5.317049,9.215739 7.975132,13.823863 0.425094,0.370481 0.901661,-0.251617 1.31676,-0.39086 1.233948,-0.717862 2.476195,-1.423352 3.689493,-2.175484 0.335179,-0.424289 -0.250387,-0.871428 -0.371569,-1.27695 -2.593613,-4.66773 -5.304075,-9.269251 -7.966694,-13.897664 -0.114531,-0.108929 -0.199638,-0.169671 -0.364002,-0.131142 z"
       id="path62"
       transform="scale(0.26458333)" /><path
       style="fill:#ff8484;fill-opacity:1;stroke:#000000;stroke-width:0.0325352;stroke-linecap:round;stroke-linejoin:round;stroke-dasharray:none;stroke-opacity:0;paint-order:fill markers stroke"
       d="m 41.263419,33.881988 c -1.554773,0.931192 -3.183861,1.776183 -4.690732,2.765609 -0.252766,0.368743 0.22331,0.763327 0.348259,1.106771 0.160775,0.313729 0.449855,0.843401 0.860808,0.532013 1.527244,-0.877425 3.091191,-1.715601 4.551816,-2.694843 0.166179,-0.504634 -0.379494,-0.917315 -0.540996,-1.363835 -0.098,-0.213563 -0.261031,-0.4451 -0.529155,-0.345715 z"
       id="path63"
       transform="scale(0.26458333)" /><path
       style="fill:#ff8484;fill-opacity:1;stroke:#000000;stroke-width:0.0325352;stroke-linecap:round;stroke-linejoin:round;stroke-dasharray:none;stroke-opacity:0;paint-order:fill markers stroke"
       d="m 42.840988,36.462286 c -1.606908,0.762461 -3.143938,1.689873 -4.689159,2.576599 -0.507367,0.313842 0.05926,0.84524 0.20863,1.204876 0.16711,0.411979 0.549299,0.990519 1.001741,0.520311 1.450184,-0.876018 2.967787,-1.655379 4.381312,-2.583493 0.185289,-0.4772 -0.263911,-0.936801 -0.446555,-1.357485 -0.107168,-0.179375 -0.220961,-0.354643 -0.455969,-0.360808 z"
       id="path64"
       transform="scale(0.26458333)" /><path
       style="fill:#ff8484;fill-opacity:1;stroke:#000000;stroke-width:0.0325352;stroke-linecap:round;stroke-linejoin:round;stroke-dasharray:none;stroke-opacity:0;paint-order:fill markers stroke"
       d="m 44.238656,38.975332 c -1.493218,0.723948 -2.90567,1.634233 -4.352214,2.455613 -0.383157,0.118812 -0.58742,0.5244 -0.32652,0.868158 0.241594,0.432452 0.506328,1.246526 1.149171,1.018534 1.483332,-0.827253 3.011404,-1.605361 4.387197,-2.604845 0.362105,-0.452369 -0.185047,-0.989878 -0.391408,-1.39935 -0.111587,-0.155465 -0.248222,-0.353145 -0.466226,-0.33811 z"
       id="path65"
       transform="scale(0.26458333)" /><g
       inkscape:label="0"
       id="g56"
       transform="matrix(0.54577946,0,0,0.54577946,10.667746,-601.13741)"
       style="stroke-width:0.21543;stroke-dasharray:none"><path
         d="m -15.465074,1111.3575 a 0.23622055,0.23622055 0 0 0 0.122277,-0.4563"
         style="fill:none;stroke:#000000;stroke-width:0.21543;stroke-linecap:round;stroke-dasharray:none"
         id="path5" /><path
         style="fill:none;stroke:#000000;stroke-width:0.21543;stroke-linecap:round;stroke-dasharray:none"
         d="m -18.5372,1110.05 3.1944,0.85"
         id="path6" /><path
         d="m -18.537197,1110.0452 a 0.23624808,0.23624808 0 0 0 -0.122277,0.4564"
         style="fill:none;stroke:#000000;stroke-width:0.21543;stroke-linecap:round;stroke-dasharray:none"
         id="path7" /><path
         style="fill:none;stroke:#000000;stroke-width:0.21543;stroke-linecap:round;stroke-dasharray:none"
         d="m -18.6595,1110.5 3.1944,0.86"
         id="path8" /><path
         style="fill:none;stroke:#000000;stroke-width:0.21543;stroke-linecap:round;stroke-dasharray:none"
         d="m -13.6832,1111.71 -4.6466,-3.9"
         id="path9" /><path
         d="m -13.683187,1111.7087 a 0.2362205,0.2362205 0 0 0 0.303679,-0.3619"
         style="fill:none;stroke:#000000;stroke-width:0.21543;stroke-linecap:round;stroke-dasharray:none"
         id="path10" /><path
         style="fill:none;stroke:#000000;stroke-width:0.21543;stroke-linecap:round;stroke-dasharray:none"
         d="m -13.3795,1111.35 -4.6467,-3.9"
         id="path11" /><path
         d="m -18.026169,1107.4478 a 0.2362205,0.2362205 0 0 0 -0.303679,0.3619"
         style="fill:none;stroke:#000000;stroke-width:0.21543;stroke-linecap:round;stroke-dasharray:none"
         id="path12" /><path
         style="fill:none;stroke:#000000;stroke-width:0.21543;stroke-linecap:round;stroke-dasharray:none"
         d="m -15.4324,1106.66 1.3976,2.99"
         id="path13" /><path
         d="m -15.432419,1106.6557 a 0.23622851,0.23622851 0 0 0 -0.428177,0.1997"
         style="fill:none;stroke:#000000;stroke-width:0.21543;stroke-linecap:round;stroke-dasharray:none"
         id="path14" /><path
         style="fill:none;stroke:#000000;stroke-width:0.21543;stroke-linecap:round;stroke-dasharray:none"
         d="m -15.8606,1106.86 1.3976,2.99"
         id="path15" /><path
         d="m -14.46296,1109.8526 a 0.23622003,0.23622003 0 0 0 0.428176,-0.1996"
         style="fill:none;stroke:#000000;stroke-width:0.21543;stroke-linecap:round;stroke-dasharray:none"
         id="path16" /><path
         style="fill:none;stroke:#000000;stroke-width:0.21543;stroke-linecap:round;stroke-dasharray:none"
         d="m -1.88976,1119.25 2.454871,-1.42"
         id="path17" /><path
         style="fill:none;stroke:#000000;stroke-width:0.21543;stroke-linecap:round;stroke-dasharray:none"
         d="m 0.565111,1117.83 0.472439,0.82"
         id="path18" /><path
         style="fill:none;stroke:#000000;stroke-width:0.21543;stroke-linecap:round;stroke-dasharray:none"
         d="m -1.41732,1120.06 2.45487,-1.41"
         id="path19" /><path
         style="fill:none;stroke:#000000;stroke-width:0.21543;stroke-linecap:round;stroke-dasharray:none"
         d="m -1.41732,1120.06 -0.47244,-0.81"
         id="path20" /><path
         style="fill:none;stroke:#000000;stroke-width:0.21543;stroke-linecap:round;stroke-dasharray:none"
         d="m -1.1811,1120.47 2.45487,-1.41"
         id="path21" /><path
         style="fill:none;stroke:#000000;stroke-width:0.21543;stroke-linecap:round;stroke-dasharray:none"
         d="m 1.27377,1119.06 0.47244,0.81"
         id="path22" /><path
         style="fill:none;stroke:#000000;stroke-width:0.21543;stroke-linecap:round;stroke-dasharray:none"
         d="m -0.708661,1121.29 2.454871,-1.42"
         id="path23" /><path
         style="fill:none;stroke:#000000;stroke-width:0.21543;stroke-linecap:round;stroke-dasharray:none"
         d="M -0.708661,1121.29 -1.1811,1120.47"
         id="path24" /><path
         style="fill:none;stroke:#000000;stroke-width:0.21543;stroke-linecap:round;stroke-dasharray:none"
         d="m -0.472441,1121.7 2.454871,-1.42"
         id="path25" /><path
         style="fill:none;stroke:#000000;stroke-width:0.21543;stroke-linecap:round;stroke-dasharray:none"
         d="m 1.98243,1120.28 0.35434,0.62"
         id="path26" /><path
         d="m 2.250302,1121.2205 a 0.23622,0.23622 0 0 0 0.086463,-0.3227"
         style="fill:none;stroke:#000000;stroke-width:0.21543;stroke-linecap:round;stroke-dasharray:none"
         id="path27" /><path
         style="fill:none;stroke:#000000;stroke-width:0.21543;stroke-linecap:round;stroke-dasharray:none"
         d="m 2.2503,1121.22 -2.045727,1.18"
         id="path28" /><path
         d="m -0.11811,1122.3151 a 0.23622,0.23622 0 0 0 0.322683,0.086"
         style="fill:none;stroke:#000000;stroke-width:0.21543;stroke-linecap:round;stroke-dasharray:none"
         id="path29" /><path
         style="fill:none;stroke:#000000;stroke-width:0.21543;stroke-linecap:round;stroke-dasharray:none"
         d="m -0.11811,1122.32 -0.354331,-0.62"
         id="path30" /><path
         style="fill:none;stroke:#000000;stroke-width:0.21543;stroke-linecap:round;stroke-dasharray:none"
         d="m -1.76772,1107.17 -0.34585,1.3"
         id="path31" /><path
         style="fill:none;stroke:#000000;stroke-width:0.21543;stroke-linecap:round;stroke-dasharray:none"
         d="m -2.11357,1108.47 -6.54633,3.77"
         id="path32" /><path
         style="fill:none;stroke:#000000;stroke-width:0.21543;stroke-linecap:round;stroke-dasharray:none"
         d="m -8.6599,1112.24 -1.29074,-0.34"
         id="path33" /><path
         style="fill:none;stroke:#000000;stroke-width:0.21543;stroke-linecap:round;stroke-dasharray:none"
         d="m -9.95064,1111.9 -1.88976,-3.27"
         id="path34" /><path
         style="fill:none;stroke:#000000;stroke-width:0.21543;stroke-linecap:round;stroke-dasharray:none"
         d="m -11.8404,1108.63 0.3459,-1.3"
         id="path35" /><path
         style="fill:none;stroke:#000000;stroke-width:0.21543;stroke-linecap:round;stroke-dasharray:none"
         d="m -11.4945,1107.33 6.54629,-3.77"
         id="path36" /><path
         style="fill:none;stroke:#000000;stroke-width:0.21543;stroke-linecap:round;stroke-dasharray:none"
         d="m -4.94821,1103.56 1.29073,0.34"
         id="path37" /><path
         style="fill:none;stroke:#000000;stroke-width:0.21543;stroke-linecap:round;stroke-dasharray:none"
         d="m -3.65748,1103.9 1.88976,3.27"
         id="path38" /><path
         style="fill:none;stroke:#000000;stroke-width:0.21543;stroke-linecap:round;stroke-dasharray:none"
         d="m -3.92308,1110.06 4.251971,7.36"
         id="path39" /><path
         style="fill:none;stroke:#000000;stroke-width:0.21543;stroke-linecap:round;stroke-dasharray:none"
         d="m -2.12598,1118.84 2.454871,-1.42"
         id="path40" /><path
         style="fill:none;stroke:#000000;stroke-width:0.21543;stroke-linecap:round;stroke-dasharray:none"
         d="m -2.12598,1118.84 -4.25197,-7.37"
         id="path41" /><path
         style="fill:none;stroke:#000000;stroke-width:0.21543;stroke-linecap:round;stroke-dasharray:none"
         d="m -6.37795,1111.47 2.45487,-1.41"
         id="path42" /><path
         style="fill:none;stroke:#000000;stroke-width:0.21543;stroke-linecap:round;stroke-dasharray:none"
         d="m 2.89567,1121.39 -2.864022,1.66"
         id="path43" /><path
         d="m 2.895669,1121.3934 a 0.23622,0.23622 0 0 0 0.086462,-0.3227"
         style="fill:none;stroke:#000000;stroke-width:0.21543;stroke-linecap:round;stroke-dasharray:none"
         id="path44" /><path
         style="fill:none;stroke:#000000;stroke-width:0.21543;stroke-linecap:round;stroke-dasharray:none"
         d="m -3.51393,1109.82 6.49606,11.25"
         id="path45" /><path
         style="fill:none;stroke:#000000;stroke-width:0.21543;stroke-linecap:round;stroke-dasharray:none"
         d="m -1.70788,1108.78 -1.80605,1.04"
         id="path46" /><path
         style="fill:none;stroke:#000000;stroke-width:0.21543;stroke-linecap:round;stroke-dasharray:none"
         d="m -1.26073,1107.11 -0.44715,1.67"
         id="path47" /><path
         style="fill:none;stroke:#000000;stroke-width:0.21543;stroke-linecap:round;stroke-dasharray:none"
         d="m -3.34618,1103.5 2.08545,3.61"
         id="path48" /><path
         style="fill:none;stroke:#000000;stroke-width:0.21543;stroke-linecap:round;stroke-dasharray:none"
         d="m -5.01496,1103.05 1.66878,0.45"
         id="path49" /><path
         style="fill:none;stroke:#000000;stroke-width:0.21543;stroke-linecap:round;stroke-dasharray:none"
         d="m -11.9002,1107.02 6.88524,-3.97"
         id="path50" /><path
         style="fill:none;stroke:#000000;stroke-width:0.21543;stroke-linecap:round;stroke-dasharray:none"
         d="m -12.3474,1108.69 0.4472,-1.67"
         id="path51" /><path
         style="fill:none;stroke:#000000;stroke-width:0.21543;stroke-linecap:round;stroke-dasharray:none"
         d="m -10.2619,1112.3 -2.0855,-3.61"
         id="path52" /><path
         style="fill:none;stroke:#000000;stroke-width:0.21543;stroke-linecap:round;stroke-dasharray:none"
         d="m -8.59316,1112.75 -1.66874,-0.45"
         id="path53" /><path
         style="fill:none;stroke:#000000;stroke-width:0.21543;stroke-linecap:round;stroke-dasharray:none"
         d="m -6.7871,1111.71 -1.80606,1.04"
         id="path54" /><path
         style="fill:none;stroke:#000000;stroke-width:0.21543;stroke-linecap:round;stroke-dasharray:none"
         d="M -0.291036,1122.96 -6.7871,1111.71"
         id="path55" /><path
         d="m -0.291036,1122.9605 a 0.23622,0.23622 0 0 0 0.322684,0.086"
         style="fill:none;stroke:#000000;stroke-width:0.21543;stroke-linecap:round;stroke-dasharray:none"
         id="path56" /></g><path
       style="fill:#000000;stroke:#000000;stroke-width:0.0230059;stroke-linecap:round;stroke-linejoin:round;stroke-dasharray:none;stroke-opacity:0;paint-order:fill markers stroke"
       d="M 29.949215,3.3429608 C 25.940286,5.5610125 21.98299,7.874377 18.010974,10.15876 c -0.73713,0.454458 -1.52903,0.836463 -2.228475,1.34336 -0.429395,1.08417 -0.648766,2.245215 -0.979504,3.363291 0.06021,0.496263 0.468,0.883159 0.6694,1.334855 1.211084,2.06874 2.379286,4.173354 3.617153,6.219724 0.456827,0.272897 1.041377,0.299458 1.547026,0.478027 0.681498,0.143161 1.349178,0.441642 2.039849,0.481696 1.197194,-0.665794 2.382959,-1.368095 3.571033,-2.056167 4.529561,7.665644 8.931401,15.418406 13.417614,23.114448 0.195315,0.335386 0.633673,0.310668 0.906745,0.08679 1.972105,-1.09134 3.946678,-2.186869 5.851697,-3.391466 0.364205,-0.274115 0.09237,-0.701593 -0.09988,-0.987367 -4.326474,-7.571639 -8.749246,-15.088028 -13.020536,-22.689195 -0.25826,-0.238208 0.219721,-0.257443 0.329667,-0.392739 1.045759,-0.608686 2.119475,-1.180539 3.141979,-1.822778 0.260321,-0.423248 0.291507,-0.967191 0.456756,-1.437074 0.160503,-0.678453 0.400017,-1.349199 0.495079,-2.037343 C 37.47886,11.106147 37.04206,10.513611 36.720349,9.8812791 35.654313,8.0173292 34.612728,6.1378186 33.502485,4.3001135 33.036366,4.0121146 32.445531,3.9774478 31.92969,3.7957129 31.298881,3.6479122 30.675603,3.4177096 30.03617,3.3328628 l -0.06046,0.00702 z m 0.118648,1.1548605 c 0.883822,0.1545024 1.741649,0.4156804 2.60765,0.6459087 1.344089,2.2216166 2.649011,4.4734477 3.901013,6.738707 -0.205555,0.884274 -0.449709,1.760391 -0.728059,2.624531 -4.487701,2.575057 -8.959352,5.1932 -13.468855,7.718211 -0.842344,-0.248966 -1.694983,-0.462035 -2.542738,-0.691799 -1.289862,-2.231359 -2.579698,-4.462734 -3.869507,-6.694124 0.244756,-0.887468 0.460252,-1.776441 0.741255,-2.649142 4.458267,-2.5547337 8.911455,-5.1210276 13.359241,-7.6922927 z m 2.2416,13.6571707 c 2.890264,4.9041 5.743709,9.830654 8.534483,14.792057 -1.600404,1.009198 -3.244942,1.930094 -4.90679,2.837338 -2.842242,-4.950387 -5.74027,-9.869571 -8.512538,-14.859654 -0.278267,-0.281784 0.274461,-0.332822 0.418432,-0.499899 1.436354,-0.840853 2.875906,-1.705179 4.345268,-2.468382 0.04038,0.06618 0.08076,0.13236 0.121145,0.19854 z m 9.155307,15.829339 c 0.309058,0.483542 0.609319,0.977244 0.8517,1.492022 -1.593218,1.007482 -3.249982,1.907914 -4.886104,2.841142 -0.313002,-0.498052 -0.611639,-0.990735 -0.871673,-1.510687 1.615424,-0.975592 3.23017,-1.957129 4.906077,-2.822477 z m 1.530422,2.625245 c 0.283984,0.4462 0.551784,0.903746 0.786075,1.378129 -1.599409,1.013589 -3.253401,1.941988 -4.915469,2.848751 -0.275751,-0.511245 -0.66047,-1.049156 -0.837553,-1.567396 1.639837,-0.908169 3.237023,-1.89417 4.901796,-2.756733 l 0.03388,0.05057 z m 1.432102,2.481631 c 0.252691,0.462071 0.640632,0.911242 0.682526,1.449341 -0.293167,0.34297 -0.772791,0.503968 -1.140396,0.768035 -1.157711,0.661106 -2.291602,1.388393 -3.502823,1.941263 -0.395043,-0.134033 -0.528447,-0.618313 -0.753904,-0.933617 -0.04572,-0.179435 -0.398655,-0.459107 -0.08044,-0.549013 1.567965,-0.941387 3.139429,-1.887251 4.754615,-2.736285 l 0.0339,0.05055 z"
       id="path57"
       transform="scale(0.26458333)" /><path
       style="fill:#000000;stroke:#000000;stroke-width:0.00575147;stroke-linecap:round;stroke-linejoin:round;stroke-dasharray:none;stroke-opacity:0;paint-order:fill markers stroke"
       d="m 2.8012262,12.232289 c -0.3424381,-0.0045 -0.6211452,0.36521 -0.5191463,0.693137 0.068733,0.270258 0.3371625,0.404561 0.5247537,0.583307 3.0807147,2.590614 6.1617813,5.18086 9.2503064,7.762147 0.178802,0.141558 0.441295,0.167643 0.633604,0.03736 0.230852,-0.125838 0.323269,-0.418085 0.241874,-0.661097 -0.06194,-0.190539 -0.25966,-0.282058 -0.392946,-0.416666 C 9.5462284,17.697178 6.5443623,15.173806 3.5359492,12.658308 3.3694384,12.532821 3.2254084,12.3727 3.0409899,12.273632 2.9654314,12.242284 2.8826847,12.230445 2.8012262,12.232289 Z"
       id="path58"
       transform="scale(0.26458333)" /><path
       style="fill:#000000;stroke:#000000;stroke-width:0.00575147;stroke-linecap:round;stroke-linejoin:round;stroke-dasharray:none;stroke-opacity:0;paint-order:fill markers stroke"
       d="m 8.029514,10.428281 c -0.3158528,-0.0044 -0.5897479,0.300921 -0.5398622,0.615236 0.036629,0.256667 0.1921039,0.475038 0.2874546,0.711835 0.8754144,1.86546 1.7353313,3.738306 2.6286446,5.595289 0.06279,0.161089 0.180204,0.3084 0.354282,0.353415 0.347909,0.118449 0.751009,-0.190545 0.723452,-0.558349 -0.01354,-0.198941 -0.140461,-0.366518 -0.209189,-0.549126 -0.907083,-1.9613 -1.8166551,-3.921563 -2.7446112,-5.87308 -0.078912,-0.195544 -0.2967671,-0.301874 -0.5001708,-0.29522 z"
       id="path59"
       transform="scale(0.26458333)" /><path
       style="fill:#000000;stroke:#000000;stroke-width:0.00575147;stroke-linecap:round;stroke-linejoin:round;stroke-dasharray:none;stroke-opacity:0;paint-order:fill markers stroke"
       d="m 1.9400146,17.681795 c -0.2938129,0.0084 -0.5552435,0.267797 -0.5448554,0.566255 -0.00767,0.249394 0.174594,0.493504 0.4270373,0.528615 2.1769064,0.597631 4.3553586,1.189908 6.5372563,1.769039 0.3260396,0.116819 0.7170215,-0.139273 0.7338251,-0.487136 0.032166,-0.271445 -0.1629856,-0.54114 -0.431438,-0.594372 C 7.5982199,19.161323 6.525479,18.891361 5.4581422,18.601913 4.3044197,18.297252 3.153029,17.982141 1.9976409,17.684782 c -0.019068,-0.0026 -0.0384,-0.0033 -0.057626,-0.003 z"
       id="path60"
       transform="scale(0.26458333)" /></g></svg>
