<?xml version="1.0" encoding="UTF-8" standalone="no"?>
<!-- Created with Inkscape (http://www.inkscape.org/) -->

<svg
   width="48"
   height="48"
   viewBox="0 0 12.7 12.7"
   version="1.1"
   id="svg1"
   xml:space="preserve"
   inkscape:version="1.4 (86a8ad7, 2024-10-11)"
   sodipodi:docname="pencil.svg"
   xmlns:inkscape="http://www.inkscape.org/namespaces/inkscape"
   xmlns:sodipodi="http://sodipodi.sourceforge.net/DTD/sodipodi-0.dtd"
   xmlns="http://www.w3.org/2000/svg"
   xmlns:svg="http://www.w3.org/2000/svg"><sodipodi:namedview
     id="namedview1"
     pagecolor="#ffffff"
     bordercolor="#000000"
     borderopacity="0.25"
     inkscape:showpageshadow="2"
     inkscape:pageopacity="0.0"
     inkscape:pagecheckerboard="0"
     inkscape:deskcolor="#d1d1d1"
     inkscape:document-units="mm"
     inkscape:zoom="128"
     inkscape:cx="11.894531"
     inkscape:cy="42.332031"
     inkscape:window-width="1920"
     inkscape:window-height="1017"
     inkscape:window-x="1912"
     inkscape:window-y="-8"
     inkscape:window-maximized="1"
     inkscape:current-layer="layer1" /><defs
     id="defs1"><marker
       id="DistanceX"
       orient="auto"
       refX="0.0"
       refY="0.0"
       style="overflow:visible"><path
         d="M 3,-3 L -3,3 M 0,-5 L  0,5"
         style="stroke:#000000; stroke-width:0.5"
         id="path1" /></marker><pattern
       id="Hatch"
       patternUnits="userSpaceOnUse"
       width="8"
       height="8"
       x="0"
       y="0"><path
         d="M8 4 l-4,4"
         stroke="#000000"
         stroke-width="0.25"
         linecap="square"
         id="path2" /><path
         d="M6 2 l-4,4"
         stroke="#000000"
         stroke-width="0.25"
         linecap="square"
         id="path3" /><path
         d="M4 0 l-4,4"
         stroke="#000000"
         stroke-width="0.25"
         linecap="square"
         id="path4" /></pattern><symbol
       id="*Model_Space" /><symbol
       id="*Paper_Space" /><symbol
       id="*Paper_Space0" /><marker
       id="DistanceX-7"
       orient="auto"
       refX="0.0"
       refY="0.0"
       style="overflow:visible"><path
         d="M 3,-3 L -3,3 M 0,-5 L  0,5"
         style="stroke:#000000; stroke-width:0.5"
         id="path1-1" /></marker><pattern
       id="Hatch-1"
       patternUnits="userSpaceOnUse"
       width="8"
       height="8"
       x="0"
       y="0"><path
         d="M8 4 l-4,4"
         stroke="#000000"
         stroke-width="0.25"
         linecap="square"
         id="path2-5" /><path
         d="M6 2 l-4,4"
         stroke="#000000"
         stroke-width="0.25"
         linecap="square"
         id="path3-2" /><path
         d="M4 0 l-4,4"
         stroke="#000000"
         stroke-width="0.25"
         linecap="square"
         id="path4-7" /></pattern><symbol
       id="*Model_Space-6" /><symbol
       id="*Paper_Space-1" /><symbol
       id="*Paper_Space0-4" /></defs><g
     inkscape:label="Layer 1"
     inkscape:groupmode="layer"
     id="layer1"><path
       style="fill:#000000;stroke:#000000;stroke-width:0.0230059;stroke-linecap:round;stroke-linejoin:round;stroke-dasharray:none;stroke-opacity:0;paint-order:fill markers stroke"
       d="m 30.802342,42.131602 c -2.088237,0.0041 -4.100203,0.663446 -6.09978,1.190784 -3.126187,0.864693 -6.332352,1.994492 -9.604134,1.453007 -1.738688,-0.23028 -3.291164,-1.139591 -4.656892,-2.194758 -0.339531,-0.348229 -0.9372769,-0.08745 -1.0092244,0.36189 -0.1085633,0.572711 0.532573,0.849912 0.8868334,1.165635 2.04724,1.501508 4.630368,2.274487 7.167587,2.069971 3.271113,-0.125011 6.34855,-1.373779 9.491751,-2.13379 2.099237,-0.547337 4.32542,-0.950427 6.470385,-0.404668 1.505732,0.332717 2.797168,1.240386 3.915874,2.266566 0.280163,0.28632 0.834169,0.494811 1.093396,0.0686 0.34154,-0.432494 -0.09497,-0.921753 -0.427753,-1.193142 -1.591013,-1.523254 -3.702422,-2.546102 -5.918482,-2.643763 -0.436372,-0.01281 -0.873072,-0.008 -1.309561,-0.0063 z"
       id="path39"
       transform="scale(0.26458333)" /><path
       style="fill:#ffeeaa;stroke:#000000;stroke-width:0.0230059;stroke-linecap:round;stroke-linejoin:round;stroke-dasharray:none;stroke-opacity:0;paint-order:fill markers stroke"
       d="m 10.742149,33.707785 c -0.135348,0.174039 0.07717,0.661064 0.02252,0.890237 0.02053,0.674643 -0.358139,1.489916 -0.282379,2.150788 0.445693,0.293164 1.256363,0.584734 1.757522,0.78509 0.803915,-0.380933 1.883261,-0.772336 2.616235,-1.277512 0.11035,-0.254463 -0.551821,-0.537312 -0.770219,-0.621386 -1.052346,-0.595599 -2.041614,-1.548891 -3.118188,-2.089422 z"
       id="path35"
       transform="scale(0.26458333)"
       sodipodi:nodetypes="cccccccc" /><path
       style="fill:#ff8080;stroke:#000000;stroke-width:0.0460118;stroke-linecap:round;stroke-linejoin:round;stroke-dasharray:none;stroke-opacity:0;paint-order:fill markers stroke"
       d="m 28.032651,3.1780657 c -0.690096,0.3534023 -0.89485,1.269378 -1.340561,1.8610444 -0.16537,0.4332008 -0.755887,0.8671043 -0.621341,1.3404676 1.502143,0.8788778 3.113888,2.0512441 4.73044,2.7034577 0.46701,-0.055677 0.486115,-0.8578803 0.770466,-1.163075 C 31.883249,7.2161138 32.479968,6.5595019 32.596454,5.8016462 31.662859,4.9895068 30.45223,4.5093606 29.40222,3.8469194 28.949109,3.6291725 28.5203,3.3028558 28.032651,3.1780657 Z"
       id="path32"
       transform="scale(0.26458333)"
       sodipodi:nodetypes="cccccccc" /><path
       style="fill:#ffdd55;stroke:#000000;stroke-width:0.0460118;stroke-linecap:round;stroke-linejoin:round;stroke-dasharray:none;stroke-opacity:0;paint-order:fill markers stroke"
       d="M 25.256028,7.5887903 C 24.72418,7.852078 24.680455,8.755468 24.295803,9.1819557 19.897064,16.793694 15.348048,24.524149 11.028631,32.180657 c 0.16343,0.487013 1.009026,0.526961 1.377875,0.859518 1.139408,0.629769 2.200143,1.693109 3.451791,2.066815 0.597389,-0.606521 0.928448,-1.736462 1.424565,-2.447529 C 21.558623,25.260922 25.969237,17.899992 30.114177,10.429682 29.201086,9.6637734 27.916816,9.1390078 26.895861,8.4801521 26.374326,8.231379 25.838967,7.6737966 25.256028,7.5887903 Z"
       id="path34"
       transform="scale(0.26458333)"
       sodipodi:nodetypes="ccccccccc" /><g
       inkscape:label="0"
       id="g29"
       transform="matrix(0.49285079,0,0,0.49285079,2.657018,-542.77247)"
       style="stroke-width:0.377953;stroke-dasharray:none"><path
         style="fill:none;stroke:#000000;stroke-width:0.377953;stroke-linecap:round;stroke-dasharray:none"
         d="m 1.1811,1121.57 -0.94488,-0.55"
         id="path5" /><path
         style="fill:none;stroke:#000000;stroke-width:0.377953;stroke-linecap:round;stroke-dasharray:none"
         d="m 0.23622,1121.02 v -1.87"
         id="path6" /><path
         style="fill:none;stroke:#000000;stroke-width:0.377953;stroke-linecap:round;stroke-dasharray:none"
         d="m 0.23622,1119.15 2.56451,1.48"
         id="path7" /><path
         style="fill:none;stroke:#000000;stroke-width:0.377953;stroke-linecap:round;stroke-dasharray:none"
         d="m 1.1811,1121.57 1.61963,-0.94"
         id="path8" /><path
         style="fill:none;stroke:#000000;stroke-width:0.377953;stroke-linecap:round;stroke-dasharray:none"
         d="m 3.1867,1120.31 7.7953,-13.5"
         id="path9" /><path
         style="fill:none;stroke:#000000;stroke-width:0.377953;stroke-linecap:round;stroke-dasharray:none"
         d="m 0.322683,1118.65 2.864017,1.66"
         id="path10" /><path
         style="fill:none;stroke:#000000;stroke-width:0.377953;stroke-linecap:round;stroke-dasharray:none"
         d="m 0.322683,1118.65 7.795277,-13.5"
         id="path11" /><path
         style="fill:none;stroke:#000000;stroke-width:0.377953;stroke-linecap:round;stroke-dasharray:none"
         d="m 8.11796,1105.15 2.86404,1.66"
         id="path12" /><path
         style="fill:none;stroke:#000000;stroke-width:0.377953;stroke-linecap:round;stroke-dasharray:none"
         d="m 8.35418,1104.74 2.86402,1.66"
         id="path13" /><path
         style="fill:none;stroke:#000000;stroke-width:0.377953;stroke-linecap:round;stroke-dasharray:none"
         d="m 8.35418,1104.74 0.99212,-1.72"
         id="path14" /><path
         d="m 9.862598,1102.886 a 0.377953,0.377953 0 0 0 -0.516293,0.1383"
         style="fill:none;stroke:#000000;stroke-width:0.377953;stroke-linecap:round;stroke-dasharray:none"
         id="path15" /><path
         style="fill:none;stroke:#000000;stroke-width:0.377953;stroke-linecap:round;stroke-dasharray:none"
         d="m 9.8626,1102.89 2.2094,1.27"
         id="path16" /><path
         d="m 12.210326,1104.6779 a 0.377953,0.377953 0 0 0 -0.13834,-0.5163"
         style="fill:none;stroke:#000000;stroke-width:0.377953;stroke-linecap:round;stroke-dasharray:none"
         id="path17" /><path
         style="fill:none;stroke:#000000;stroke-width:0.377953;stroke-linecap:round;stroke-dasharray:none"
         d="m 11.2182,1106.4 0.9921,-1.72"
         id="path18" /><path
         style="fill:none;stroke:#000000;stroke-width:0.377953;stroke-linecap:round;stroke-dasharray:none"
         d="m 9.68967,1102.24 3.02773,1.75"
         id="path19" /><path
         d="M 9.689673,1102.2406 A 0.377953,0.377953 0 0 0 9.17338,1102.379"
         style="fill:none;stroke:#000000;stroke-width:0.377953;stroke-linecap:round;stroke-dasharray:none"
         id="path20" /><path
         style="fill:none;stroke:#000000;stroke-width:0.377953;stroke-linecap:round;stroke-dasharray:none"
         d="m -0.23622,1118.68 9.4096,-16.3"
         id="path21" /><path
         style="fill:none;stroke:#000000;stroke-width:0.377953;stroke-linecap:round;stroke-dasharray:none"
         d="m -0.23622,1122.93 v -4.25"
         id="path22" /><path
         style="fill:none;stroke:#000000;stroke-width:0.377953;stroke-linecap:round;stroke-dasharray:none"
         d="m -0.23622,1122.93 3.68231,-2.13"
         id="path23" /><path
         style="fill:none;stroke:#000000;stroke-width:0.377953;stroke-linecap:round;stroke-dasharray:none"
         d="m 3.44609,1120.8 9.40961,-16.3"
         id="path24" /><path
         d="m 12.855693,1104.5049 a 0.377953,0.377953 0 0 0 -0.138341,-0.5163"
         style="fill:none;stroke:#000000;stroke-width:0.377953;stroke-linecap:round;stroke-dasharray:none"
         id="path25" /><path
         d="m 0.245501,1124.1221 c 0.27066,0.2312 0.575428,0.4466 0.871908,0.6167 0.29648,0.1701 0.584671,0.295 0.87665,0.3902 0.583957,0.1906 1.183063,0.2627 1.794938,0.2487 0.611876,-0.014 1.23652,-0.1139 1.870146,-0.2583 0.633625,-0.1443 1.276231,-0.3329 1.922204,-0.5212 0.645973,-0.1882 1.295312,-0.376 1.945823,-0.517 0.650511,-0.141 1.302194,-0.2352 1.955619,-0.2266 0.653425,0.01 1.308592,0.1197 1.940357,0.3785 0.315882,0.1295 0.625914,0.2958 0.936732,0.5129 0.310818,0.2171 0.622421,0.4849 0.895572,0.7677"
         style="fill:none;stroke:#000000;stroke-width:0.377953;stroke-linecap:round;stroke-dasharray:none"
         id="path26" /><path
         d="m 0.245501,1124.1221 a 0.377953,0.377953 0 0 0 -0.491002,0.5747"
         style="fill:none;stroke:#000000;stroke-width:0.377953;stroke-linecap:round;stroke-dasharray:none"
         id="path27" /><path
         d="m -0.245501,1124.6968 c 0.307007,0.2623 0.649998,0.5048 0.989298,0.6991 0.3393,0.1943 0.674907,0.3403 1.013676,0.4511 0.677538,0.2214 1.36772,0.3015 2.049454,0.2864 0.681733,-0.015 1.355016,-0.1252 2.019871,-0.2769 0.664854,-0.1516 1.32128,-0.3447 1.966202,-0.5326 0.644922,-0.1879 1.278341,-0.3707 1.893738,-0.5038 0.615398,-0.1331 1.212774,-0.2165 1.787862,-0.2097 0.575088,0.01 1.127886,0.1037 1.659808,0.3213 0.265961,0.1088 0.526703,0.2478 0.794846,0.4356 0.268143,0.1877 0.543687,0.4243 0.782464,0.6716"
         style="fill:none;stroke:#000000;stroke-width:0.377953;stroke-linecap:round;stroke-dasharray:none"
         id="path28" /><path
         d="m 14.711718,1126.0389 a 0.37798132,0.37798132 0 0 0 0.543732,-0.5252"
         style="fill:none;stroke:#000000;stroke-width:0.377953;stroke-linecap:round;stroke-dasharray:none"
         id="path29" /></g><path
       style="fill:#000000;stroke:#000000;stroke-width:0.0230059;stroke-linecap:round;stroke-linejoin:round;stroke-dasharray:none;stroke-opacity:0;paint-order:fill markers stroke"
       d="M 27.715344,1.7572568 C 27.107806,1.7959568 26.982859,2.536675 26.676361,2.9356079 21.01298,12.739411 15.353441,22.545512 9.6924346,32.350716 c -0.09328,1.033705 -0.013757,2.090149 -0.040184,3.132651 0.023747,1.396354 -0.049477,2.799606 0.062653,4.191809 0.077668,0.376517 0.5234154,0.264995 0.7321014,0.07359 1.980721,-1.146061 3.978197,-2.274072 5.937752,-3.449867 1.075618,-1.749421 2.067126,-3.563354 3.110404,-5.337579 C 24.239394,22.717599 29.040657,14.506244 33.714994,6.2226017 33.92656,5.9197647 34.145225,5.461273 33.791736,5.1704794 32.262637,4.2047225 30.667071,3.3374631 29.106773,2.4196129 28.646008,2.2126529 28.236789,1.7936056 27.715344,1.7572568 Z m 0.379603,1.0777033 c 1.260474,0.5485531 2.437364,1.2906483 3.631281,1.973947 0.368586,0.2814156 0.898698,0.4212132 1.130349,0.8479357 0.231826,0.5012362 -0.264207,0.9411354 -0.43344,1.378568 C 31.951603,7.8844735 31.488976,8.7404434 30.966049,9.5592819 29.15213,8.5528868 27.333794,7.5390503 25.586092,6.4148612 26.174492,5.2592513 26.83079,4.1366269 27.540581,3.0488364 27.680202,2.8960806 27.889195,2.8172197 28.094947,2.8349601 Z m -2.895592,4.3588434 c 1.804205,0.9742478 3.599386,1.9982325 5.344886,3.0847405 -4.564108,8.003991 -9.194206,15.970366 -13.832203,23.931725 -0.247176,0.419706 -0.49173,0.841019 -0.745266,1.25693 -1.779032,-1.018381 -3.583151,-2.029542 -5.331094,-3.079747 1.331935,-2.537502 2.818895,-4.991233 4.231447,-7.484472 3.416709,-5.916995 6.820767,-11.841449 10.271598,-17.7386603 l 0.05474,0.026619 z M 10.488378,33.237726 c 1.616085,0.885573 3.23256,1.780565 4.78291,2.770167 -0.01557,0.150203 -0.408483,0.257038 -0.54801,0.387261 -0.8238,0.485624 -1.644911,0.976574 -2.498805,1.412319 -0.597943,-0.312467 -1.184645,-0.648065 -1.754166,-1.009819 -0.05205,-1.188288 -0.055,-2.382747 -0.0039,-3.570865 z"
       id="path38"
       transform="scale(0.26458333)" /></g></svg>
